<svg width="192" height="192" viewBox="0 0 192 192" fill="none" xmlns="http://www.w3.org/2000/svg">
  <!-- Background gradient -->
  <rect width="192" height="192" rx="42" fill="url(#gradient)"/>
  
  <!-- Camera icon -->
  <g transform="translate(48, 48)">
    <!-- Camera body -->
    <rect x="8" y="24" width="80" height="56" rx="8" fill="white" opacity="0.95"/>
    
    <!-- Lens -->
    <circle cx="48" cy="52" r="20" fill="#8b5cf6"/>
    <circle cx="48" cy="52" r="14" fill="white" opacity="0.3"/>
    
    <!-- Flash -->
    <rect x="72" y="32" width="8" height="8" rx="2" fill="#ec4899"/>
    
    <!-- Viewfinder -->
    <path d="M 20 16 L 32 16 L 38 24 L 20 24 Z" fill="white" opacity="0.95"/>
    
    <!-- Sparkles for AI -->
    <g opacity="0.8">
      <path d="M 70 12 L 72 16 L 76 18 L 72 20 L 70 24 L 68 20 L 64 18 L 68 16 Z" fill="#fbbf24"/>
      <path d="M 24 72 L 26 76 L 30 78 L 26 80 L 24 84 L 22 80 L 18 78 L 22 76 Z" fill="#fbbf24"/>
    </g>
  </g>
  
  <!-- Gradient definition -->
  <defs>
    <linearGradient id="gradient" x1="0%" y1="0%" x2="100%" y2="100%">
      <stop offset="0%" style="stop-color:#8b5cf6;stop-opacity:1" />
      <stop offset="100%" style="stop-color:#ec4899;stop-opacity:1" />
    </linearGradient>
  </defs>
</svg>
